<svg width="48" height="48" viewBox="0 0 48 48" fill="none" xmlns="http://www.w3.org/2000/svg">
<path fill-rule="evenodd" clip-rule="evenodd" d="M28.8875 13.1115H14.4445C13.8334 13.1115 13.3335 13.6114 13.3335 14.2225V29.7765L17.7775 25.3325H28.8875C29.4985 25.3325 29.9985 24.8325 29.9985 24.2215V14.2225C29.9985 13.6114 29.4985 13.1115 28.8875 13.1115ZM27.7765 15.3334V23.1104H16.8554L16.1999 23.7659L15.5555 24.4102V15.3334H27.7765ZM32.2205 17.5555H34.4425C35.0535 17.5555 35.5535 18.0554 35.5535 18.6665V35.3315L31.1095 30.8875H18.8885C18.2774 30.8875 17.7775 30.3875 17.7775 29.7765V27.5545H32.2205V17.5555Z" fill="#8885FF"/>
</svg>
