<svg width="33" height="33" viewBox="0 0 33 33" fill="none" xmlns="http://www.w3.org/2000/svg">
<path fill-rule="evenodd" clip-rule="evenodd" d="M21.1886 3.07434H4.8151C4.12237 3.07434 3.5556 3.64112 3.5556 4.33384V21.9668L8.59359 16.9288H21.1886C21.8813 16.9288 22.4481 16.3621 22.4481 15.6693V4.33384C22.4481 3.64112 21.8813 3.07434 21.1886 3.07434ZM19.9291 5.59325V14.4098H7.54822L6.80512 15.1529L6.07461 15.8834V5.59325H19.9291ZM24.9671 8.11236H27.4861C28.1788 8.11236 28.7456 8.67914 28.7456 9.37186V28.2644L23.7076 23.2264H9.85309C9.16037 23.2264 8.59359 22.6596 8.59359 21.9669V19.4479H24.9671V8.11236Z" fill="white"/>
</svg>
