<svg width="48" height="48" viewBox="0 0 48 48" fill="none" xmlns="http://www.w3.org/2000/svg">
<path fill-rule="evenodd" clip-rule="evenodd" d="M15.9343 15.8973H32.882C33.9177 15.8973 34.7651 16.7447 34.7651 17.7804V30.0204C34.7651 31.0561 33.9177 31.9035 32.882 31.9035H15.9343C14.8987 31.9035 14.0513 31.0561 14.0513 30.0204V17.7804C14.0513 16.7447 14.8987 15.8973 15.9343 15.8973ZM15.9343 17.7804V30.0204H23.4667V17.7804H15.9343ZM32.882 30.0204H25.3497V17.7804H32.882V30.0204ZM31.9405 21.0758H26.2913V22.4881H31.9405V21.0758ZM26.2913 23.4296H31.9405V24.842H26.2913V23.4296ZM31.9405 25.7835H26.2913V27.1958H31.9405V25.7835Z" fill="#F8B76B"/>
</svg>
