<svg width="28" height="28" viewBox="0 0 28 28" fill="none" xmlns="http://www.w3.org/2000/svg">
<path fill-rule="evenodd" clip-rule="evenodd" d="M4.11158 4.66675H24.1141C25.3365 4.66675 26.3366 5.66687 26.3366 6.88925V21.3355C26.3366 22.5579 25.3365 23.558 24.1141 23.558H4.11158C2.88921 23.558 1.88908 22.5579 1.88908 21.3355V6.88925C1.88908 5.66687 2.88921 4.66675 4.11158 4.66675ZM4.11158 6.88925V21.3355H13.0016V6.88925H4.11158ZM24.1141 21.3355H15.2241V6.88925H24.1141V21.3355ZM23.0028 10.7786H16.3353V12.4455H23.0028V10.7786ZM16.3353 13.5567H23.0028V15.2236H16.3353V13.5567ZM23.0028 16.3349H16.3353V18.0017H23.0028V16.3349Z" fill="white"/>
</svg>
